<svg viewBox="0 0 16 16" xmlns="http://www.w3.org/2000/svg" width="16" height="16" >
    <path d="M13.545733333333333 5.166653333333333L10.511766666666666 5.166653333333333C10.658033333333332 4.851813333333333 10.821733333333334 4.440706666666666 10.880833333333332 4.044453333333333C10.923233333333332 3.760413333333333 10.927266666666664 3.412493333333333 10.893133333333333 3.0813333333333333C10.859833333333334 2.7581999999999995 10.784866666666666 2.3969066666666663 10.6352 2.1132133333333334C10.318299999999999 1.5124266666666666 9.882166666666667 1.09052 9.357366666666666 0.9881599999999999C8.799166666666666 0.8792866666666665 8.318566666666666 1.1633 8.030966666666666 1.59852C7.7904333333333335 1.9625133333333333 7.6966 2.26618 7.611066666666667 2.5431266666666668L7.608366666666666 2.5519066666666665C7.526133333333332 2.817973333333333 7.4452333333333325 3.07934 7.237266666666667 3.4476933333333335C6.895133333333334 4.053713333333333 6.615993333333333 4.36802 6.240833333333333 4.69694C6.046326666666666 4.867473333333333 5.84366 4.974753333333333 5.666666666666666 5.03686L5.666666666666666 14.149866666666664C6.190953333333333 14.161133333333334 6.752166666666666 14.168266666666668 7.333333333333333 14.168266666666668C8.896066666666666 14.168266666666668 10.214966666666665 14.117266666666666 11.084633333333333 14.071433333333333C11.938133333333333 14.026433333333333 12.754100000000001 13.5962 13.1998 12.814466666666664C13.621066666666666 12.075666666666665 14.160633333333333 10.9572 14.485833333333334 9.619766666666667C14.7904 8.367233333333333 14.9174 7.348799999999999 14.968999999999998 6.656493333333334C15.032466666666666 5.8043733333333325 14.340166666666665 5.166653333333333 13.545733333333333 5.166653333333333zM4.666666666666666 14.122666666666667L4.666666666666666 5.166653333333333L3.5348733333333335 5.166653333333333C2.506193333333333 5.166653333333333 1.591813333333333 5.90056 1.4747533333333334 6.9655C1.4003066666666666 7.642799999999999 1.3333333333333333 8.523499999999999 1.3333333333333333 9.5016C1.3333333333333333 10.559333333333333 1.4116666666666666 11.540700000000001 1.4928399999999997 12.274533333333332C1.6048399999999998 13.287066666666664 2.43944 14.026599999999998 3.4350066666666668 14.073566666666666C3.78952 14.0903 4.205413333333333 14.107633333333332 4.666666666666666 14.122666666666667z"/>
</svg>