<?xml version="1.0" encoding="utf-8"?><!DOCTYPE svg PUBLIC "-//W3C//DTD SVG 1.1//EN" "http://www.w3.org/Graphics/SVG/1.1/DTD/svg11.dtd"><svg id="system-daishouhuo" width="128" height="128" style="width:128px;height:128px;" version="1.1" xmlns="http://www.w3.org/2000/svg" viewBox="0 0 1024 1024" enable-background="new 0 0 1024 1024" xml:space="preserve"><path fill="#666" d="M317 429 l-141 0 q-59 5 -98 44.5 q-39 39.5 -41 98.5 l0 75 l1 10 q5 58 46 95 q41 37 101 39 l659 0 l10 -1 q59 -5 98 -44.5 q39 -39.5 40 -98.5 l0 -75 l0 -9 q-5 -58 -46.5 -95.5 q-41.5 -37.5 -101.5 -38.5 l-132 0 l-5 0 q-17 3 -27.5 15.5 q-10.5 12.5 -9.5 29.5 q1 17 13 28.5 q12 11.5 29 11.5 l132 0 l7 0 q24 3 39.5 19 q15.5 16 16.5 39 l0 75 l0 7 q-3 22 -20.5 36.5 q-17.5 14.5 -42.5 14.5 l-659 0 l-6 0 q-25 -3 -40.5 -19 q-15.5 -16 -15.5 -39 l0 -75 l0 -6 q3 -22 20 -36.5 q17 -14.5 42 -15.5 l132 0 l6 0 q17 -3 27 -15.5 q10 -12.5 9 -30 q-1 -17.5 -13 -28.5 q-12 -11 -29 -11 l-132 0 l132 0 ZM288 214 q-13 13 -13.5 30 q-0.5 17 11.5 31 l5 4 q13 9 28.5 8.5 q15.5 -0.5 27.5 -11.5 l125 -120 l0 391 l1 6 q2 17 15 27 q13 10 30 9 q17 -1 28 -13 q11 -12 12 -29 l0 -391 l125 120 q13 12 30 11.5 q17 -0.5 30 -13.5 q13 -13 12.5 -30 q-0.5 -17 -13.5 -30 l-198 -188 q-13 -12 -29.5 -12 q-16.5 0 -29.5 12 l-197 188 Z"/></svg>