<?xml version="1.0" encoding="utf-8"?><!DOCTYPE svg PUBLIC "-//W3C//DTD SVG 1.1//EN" "http://www.w3.org/Graphics/SVG/1.1/DTD/svg11.dtd"><svg id="system-daishouhuo" width="128" height="128" style="width:128px;height:128px;" version="1.1" xmlns="http://www.w3.org/2000/svg" viewBox="0 0 1024 1024" enable-background="new 0 0 1024 1024" xml:space="preserve"><path fill="#666" d="M921 221.9 q41 7 53 43.5 q12 36.5 -17 69.5 l-129 133 q-23 24 -32.5 54 q-9.5 30 -4.5 63 l33 186 q3 44 -28.5 66 q-31.5 22 -70.5 4 l-147 -80 q-30 -17 -64.5 -17 q-34.5 0 -64.5 17 l-146 80 q-40 18 -72.5 -4 q-32.5 -22 -27.5 -66 l30 -186 q5 -33 -4.5 -63.5 q-9.5 -30.5 -32.5 -53.5 l-129 -133 q-29 -33 -17 -69.5 q12 -36.5 53 -43.5 l173 -27 q33 -5 58.5 -25.5 q25.5 -20.5 41.5 -51.5 l73 -159 q23 -40 62.5 -40 q39.5 0 60.5 40 l76 159 q13 31 40 51.5 q27 20.5 60 25.5 l173 27 Z"/></svg>