<?xml version="1.0" encoding="utf-8"?><!DOCTYPE svg PUBLIC "-//W3C//DTD SVG 1.1//EN" "http://www.w3.org/Graphics/SVG/1.1/DTD/svg11.dtd"><svg id="system-daishouhuo" width="128" height="128" style="width:128px;height:128px;" version="1.1" xmlns="http://www.w3.org/2000/svg" viewBox="0 0 1024 1024" enable-background="new 0 0 1024 1024" xml:space="preserve"><path fill="#666" d="M498 889.51 q-14 0 -63 -7.5 q-49 -7.5 -109 -35.5 q-60 -28 -105 -86 q-45 -58 -46 -158 q-5 -11 17.5 -91.5 q22.5 -80.5 129.5 -151.5 q-7 0 -53 -48 q-46 -48 -51 -141 q-8 -33 40.5 -137 q48.5 -104 247.5 -119 q64 -5 170 39.5 q106 44.5 118 205.5 q2 26 -16 88.5 q-18 62.5 -88 111.5 q34 19 87 74.5 q53 55.5 59 163.5 q0 14 -9 59.5 q-9 45.5 -42 99 q-33 53.5 -101.5 92 q-68.5 38.5 -185.5 41.5 ZM498 293.51 q20 4 59 -12 q39 -16 45 -90 q1 -16 -15 -57 q-16 -41 -79 -47 q-21 -2 -57.5 16 q-36.5 18 -40.5 88 q-3 18 13.5 58 q16.5 40 74.5 44 ZM508 717.51 q24 4 69.5 -18 q45.5 -22 50.5 -113 q3 -21 -17 -75 q-20 -54 -103 -61 q-22 -3 -71 20.5 q-49 23.5 -54 110.5 q-4 22 17.5 76 q21.5 54 107.5 60 Z"/></svg>