<svg viewBox="0 0 1024 1024" width="100%" height="100%" fill="currentColor" xmlns="http://www.w3.org/2000/svg"><path d="M512 21 q-75 0 -141 28.5 q-66 28.5 -115.5 78 q-49.5 49.5 -78 115.5 q-28.5 66 -28.5 141 q0 75 28.5 141 q28.5 66 78 115.5 q49.5 49.5 115.5 78 q66 28.5 141 28.5 q75 0 141 -28.5 q66 -28.5 115.5 -78 q49.5 -49.5 78 -115.5 q28.5 -66 28.5 -141 q0 -75 -28.5 -141 q-28.5 -66 -78 -115.5 q-49.5 -49.5 -115.5 -78 q-66 -28.5 -141 -28.5 l0 0 l0 0 ZM85 384 q0 -88 33.5 -165.5 q33.5 -77.5 92 -136 q58.5 -58.5 136 -92 q77.5 -33.5 165.5 -33.5 q88 0 165.5 33.5 q77.5 33.5 136 92 q58.5 58.5 92 136 q33.5 77.5 33.5 165.5 q0 88 -33.5 165.5 q-33.5 77.5 -92 136 q-58.5 58.5 -136 92 q-77.5 33.5 -165.5 33.5 q-88 0 -165.5 -33.5 q-77.5 -33.5 -136 -92 q-58.5 -58.5 -92 -136 q-33.5 -77.5 -33.5 -165.5 l0 0 l0 0 ZM549 552 q0 15 -11 26 q-11 11 -26 11 q-15 0 -26 -11 q-11 -11 -11 -26 q0 -15 11 -26 q11 -11 26 -11 q15 0 26 11 q11 11 11 26 l0 0 l0 0 ZM512 251 q-22 0 -37.5 15.5 q-15.5 15.5 -15.5 37.5 q0 13 -9.5 22.5 q-9.5 9.5 -22.5 9.5 q-14 0 -23 -9.5 q-9 -9.5 -9 -22.5 q0 -32 15.5 -59 q15.5 -27 42.5 -42.5 q27 -15.5 59 -15.5 q32 0 59 15.5 q27 15.5 42.5 42.5 q15.5 27 15.5 59 q0 24 -7.5 41.5 q-7.5 17.5 -18.5 30.5 q-5 7 -11 12.5 q-6 5.5 -11 10.5 q-2 2 -6 5 q-3 4 -6.5 7 q-3.5 3 -6.5 6 q-8 8 -11.5 14 q-3.5 6 -4.5 9 q-2 3 -2 6 q0 3 0 7 q0 14 -9.5 23 q-9.5 9 -22.5 9 q-13 0 -22.5 -9 q-9.5 -9 -9.5 -23 q0 -6 1 -15 q1 -9 4 -19 q4 -11 11.5 -23 q7.5 -12 19.5 -24 q5 -4 9 -8 q4 -4 8 -8 q3 -3 5 -4 q10 -10 16 -16 q5 -7 8 -14.5 q3 -7.5 3 -17.5 q0 -22 -15.5 -37.5 q-15.5 -15.5 -37.5 -15.5 l0 0 l0 0 Z"/></svg>
